<svg width="256" height="251" viewBox="0 0 256 251" fill="none" xmlns="http://www.w3.org/2000/svg">
<g clip-path="url(#clip0_1_7)">
<path d="M128.001 0.5C57.3173 0.5 0 57.8067 0 128.501C0 185.055 36.6762 233.036 87.5349 249.961C93.932 251.146 96.2806 247.184 96.2806 243.803C96.2806 240.751 96.1619 230.668 96.1068 219.972C60.4968 227.715 52.9826 204.87 52.9826 204.87C47.16 190.075 38.7704 186.141 38.7704 186.141C27.1569 178.196 39.6458 178.359 39.6458 178.359C52.4993 179.262 59.2674 191.55 59.2674 191.55C70.6838 211.118 89.2116 205.461 96.5159 202.19C97.6647 193.918 100.982 188.271 104.643 185.074C76.2118 181.838 46.3248 170.862 46.3248 121.816C46.3248 107.841 51.3251 96.4224 59.5132 87.4584C58.1842 84.2344 53.8029 71.2156 60.7532 53.5844C60.7532 53.5844 71.5019 50.1442 95.9626 66.705C106.173 63.8689 117.123 62.4466 128.001 62.3978C138.879 62.4466 149.838 63.8689 160.067 66.705C184.498 50.1442 195.232 53.5844 195.232 53.5844C202.199 71.2156 197.816 84.2344 196.487 87.4584C204.694 96.4224 209.66 107.841 209.66 121.816C209.66 170.979 179.716 181.804 151.213 184.973C155.804 188.945 159.895 196.735 159.895 208.677C159.895 225.803 159.747 239.587 159.747 243.803C159.747 247.21 162.051 251.201 168.539 249.944C219.37 233 256 185.036 256 128.501C256 57.8067 198.691 0.5 128.001 0.5ZM47.9406 182.84C47.6586 183.476 46.6582 183.667 45.7467 183.23C44.8183 182.813 44.2969 181.946 44.5979 181.308C44.8734 180.653 45.876 180.47 46.8023 180.909C47.7328 181.327 48.2627 182.202 47.9406 182.84ZM54.2368 188.458C53.6263 189.024 52.433 188.761 51.6233 187.867C50.786 186.974 50.6292 185.781 51.2481 185.207C51.8776 184.641 53.0349 184.906 53.8743 185.798C54.7116 186.701 54.8748 187.886 54.2368 188.458ZM58.5562 195.646C57.772 196.191 56.4896 195.68 55.6968 194.542C54.9126 193.404 54.9126 192.039 55.7138 191.492C56.5087 190.945 57.772 191.437 58.5753 192.566C59.3575 193.724 59.3575 195.089 58.5562 195.646ZM65.8614 203.971C65.1598 204.745 63.6654 204.537 62.5717 203.482C61.4525 202.449 61.1409 200.985 61.8446 200.211C62.5547 199.435 64.0575 199.653 65.1598 200.701C66.2705 201.731 66.6096 203.206 65.8614 203.971ZM75.3025 206.782C74.993 207.784 73.5538 208.24 72.104 207.814C70.6563 207.375 69.7088 206.201 70.0013 205.188C70.3023 204.179 71.7479 203.704 73.2083 204.16C74.6539 204.596 75.6035 205.762 75.3025 206.782ZM86.0469 207.974C86.083 209.029 84.8536 209.905 83.3317 209.924C81.8013 209.958 80.5634 209.103 80.5465 208.065C80.5465 206.999 81.7483 206.132 83.2787 206.106C84.8006 206.077 86.0469 206.924 86.0469 207.974ZM96.6021 207.569C96.7844 208.599 95.7267 209.657 94.2154 209.939C92.7296 210.21 91.3539 209.574 91.1653 208.553C90.9809 207.497 92.0576 206.439 93.5414 206.166C95.0548 205.903 96.4093 206.522 96.6021 207.569Z" fill="#313BAC"/>
</g>
<defs>
<clipPath id="clip0_1_7">
<rect width="256" height="250" fill="white" transform="translate(0 0.5)"/>
</clipPath>
</defs>
</svg>
