<svg width="256" height="257" viewBox="0 0 256 257" fill="none" xmlns="http://www.w3.org/2000/svg">
<g clip-path="url(#clip0_1_10)">
<path d="M128 23.5635C162.177 23.5635 166.225 23.6936 179.722 24.3094C192.202 24.879 198.98 26.9642 203.491 28.7166C209.465 31.0387 213.729 33.8129 218.208 38.2917C222.687 42.7706 225.461 47.0351 227.783 53.0093C229.536 57.5201 231.621 64.2977 232.191 76.777C232.806 90.2746 232.936 94.3226 232.936 128.5C232.936 162.678 232.806 166.726 232.191 180.223C231.621 192.703 229.536 199.48 227.783 203.991C225.461 209.965 222.687 214.23 218.208 218.709C213.729 223.188 209.465 225.962 203.491 228.283C198.98 230.036 192.202 232.122 179.722 232.691C166.227 233.307 162.179 233.437 128 233.437C93.8201 233.437 89.7721 233.307 76.277 232.691C63.7971 232.122 57.0196 230.036 52.5093 228.283C46.5346 225.962 42.2701 223.188 37.7912 218.709C33.3124 214.23 30.5381 209.965 28.2166 203.991C26.4637 199.48 24.3785 192.703 23.8089 180.223C23.1931 166.726 23.063 162.678 23.063 128.5C23.063 94.3226 23.1931 90.2746 23.8089 76.7775C24.3785 64.2977 26.4637 57.5201 28.2166 53.0093C30.5381 47.0351 33.3124 42.7706 37.7912 38.2917C42.2701 33.8129 46.5346 31.0387 52.5093 28.7166C57.0196 26.9642 63.7971 24.879 76.2765 24.3094C89.7741 23.6936 93.8221 23.5635 128 23.5635ZM128 0.5C93.2368 0.5 88.8783 0.647348 75.2258 1.27027C61.6011 1.89219 52.2969 4.05566 44.1546 7.22009C35.7375 10.4912 28.5992 14.868 21.4833 21.9839C14.3675 29.0998 9.99071 36.238 6.71958 44.6551C3.55515 52.7974 1.39168 62.1017 0.769767 75.7263C0.14684 89.3783 0 93.7373 0 128.5C0 163.263 0.14684 167.622 0.769767 181.274C1.39168 194.899 3.55515 204.203 6.71958 212.345C9.99071 220.762 14.3675 227.901 21.4833 235.017C28.5992 242.133 35.7375 246.509 44.1546 249.78C52.2969 252.945 61.6011 255.108 75.2258 255.73C88.8783 256.353 93.2368 256.5 128 256.5C162.763 256.5 167.122 256.353 180.774 255.73C194.398 255.108 203.703 252.945 211.845 249.78C220.262 246.509 227.4 242.133 234.516 235.017C241.632 227.901 246.009 220.762 249.28 212.345C252.444 204.203 254.608 194.899 255.23 181.274C255.853 167.622 256 163.263 256 128.5C256 93.7373 255.853 89.3783 255.23 75.7263C254.608 62.1017 252.444 52.7974 249.28 44.6551C246.009 36.238 241.632 29.0998 234.516 21.9839C227.4 14.868 220.262 10.4912 211.845 7.22009C203.703 4.05566 194.398 1.89219 180.774 1.27027C167.122 0.647348 162.763 0.5 128 0.5ZM128 62.7703C91.6983 62.7703 62.2698 92.1988 62.2698 128.5C62.2698 164.802 91.6983 194.23 128 194.23C164.301 194.23 193.73 164.802 193.73 128.5C193.73 92.1988 164.301 62.7703 128 62.7703ZM128 171.167C104.436 171.167 85.3328 152.064 85.3328 128.5C85.3328 104.936 104.436 85.8333 128 85.8333C151.564 85.8333 170.667 104.936 170.667 128.5C170.667 152.064 151.564 171.167 128 171.167ZM211.686 60.1734C211.686 68.6566 204.81 75.5337 196.327 75.5337C187.843 75.5337 180.966 68.6566 180.966 60.1734C180.966 51.6902 187.843 44.8137 196.327 44.8137C204.81 44.8137 211.686 51.6902 211.686 60.1734Z" fill="#313BAC"/>
</g>
<defs>
<clipPath id="clip0_1_10">
<rect width="256" height="256" fill="white" transform="translate(0 0.5)"/>
</clipPath>
</defs>
</svg>
