<svg width="313" height="70" viewBox="0 0 313 70" fill="none" xmlns="http://www.w3.org/2000/svg">
<path d="M29.72 69.96C25.304 69.96 21.304 69.448 17.72 68.424C14.2 67.336 11.064 65.8 8.312 63.816C5.56 61.768 3.096 59.368 0.92 56.616L10.808 45.384C14.008 49.672 17.208 52.552 20.408 54.024C23.672 55.496 27.032 56.232 30.488 56.232C32.216 56.232 33.784 56.008 35.192 55.56C36.6 55.112 37.688 54.472 38.456 53.64C39.224 52.744 39.608 51.656 39.608 50.376C39.608 49.416 39.352 48.552 38.84 47.784C38.392 47.016 37.752 46.344 36.92 45.768C36.088 45.192 35.096 44.68 33.944 44.232C32.792 43.72 31.576 43.304 30.296 42.984C29.016 42.6 27.704 42.28 26.36 42.024C22.648 41.192 19.416 40.168 16.664 38.952C13.912 37.736 11.608 36.264 9.752 34.536C7.96 32.744 6.616 30.728 5.72 28.488C4.824 26.184 4.376 23.624 4.376 20.808C4.376 17.8 5.048 15.048 6.392 12.552C7.8 9.992 9.656 7.816 11.96 6.024C14.328 4.168 17.048 2.75999 20.12 1.8C23.192 0.775997 26.392 0.263998 29.72 0.263998C34.136 0.263998 37.912 0.743998 41.048 1.704C44.248 2.6 46.968 3.912 49.208 5.64C51.512 7.368 53.464 9.448 55.064 11.88L44.984 21.576C43.64 19.912 42.168 18.536 40.568 17.448C39.032 16.36 37.368 15.528 35.576 14.952C33.848 14.376 32.056 14.088 30.2 14.088C28.28 14.088 26.616 14.344 25.208 14.856C23.864 15.304 22.808 15.976 22.04 16.872C21.272 17.704 20.888 18.728 20.888 19.944C20.888 21.032 21.208 21.96 21.848 22.728C22.488 23.496 23.352 24.2 24.44 24.84C25.528 25.416 26.776 25.928 28.184 26.376C29.592 26.76 31.064 27.08 32.6 27.336C36.12 28.04 39.288 28.968 42.104 30.12C44.984 31.272 47.448 32.68 49.496 34.344C51.608 36.008 53.208 37.992 54.296 40.296C55.448 42.536 56.024 45.16 56.024 48.168C56.024 52.84 54.872 56.808 52.568 60.072C50.328 63.272 47.224 65.736 43.256 67.464C39.352 69.128 34.84 69.96 29.72 69.96ZM59.7477 69L86.3398 1.8H100.164L126.564 69H110.052L97.3798 34.92C96.8678 33.576 96.3558 32.136 95.8438 30.6C95.3318 29.064 94.8198 27.496 94.3078 25.896C93.7958 24.232 93.2838 22.632 92.7718 21.096C92.3238 19.496 91.9398 18.024 91.6198 16.68L94.4998 16.584C94.1158 18.184 93.6678 19.752 93.1558 21.288C92.7078 22.824 92.2278 24.36 91.7158 25.896C91.2678 27.368 90.7558 28.872 90.1798 30.408C89.6038 31.88 89.0598 33.416 88.5478 35.016L75.8758 69H59.7477ZM72.4198 56.136L77.5078 43.848H108.42L113.412 56.136H72.4198ZM144.637 69V35.496L145.309 40.2L118.14 1.8H136.669L157.405 31.56L148.957 31.272L167.677 1.8H185.629L159.613 41.256L161.053 34.728V69H144.637ZM177.216 69L203.809 1.8H217.633L244.033 69H227.521L214.849 34.92C214.337 33.576 213.825 32.136 213.313 30.6C212.801 29.064 212.289 27.496 211.777 25.896C211.265 24.232 210.753 22.632 210.241 21.096C209.793 19.496 209.409 18.024 209.089 16.68L211.969 16.584C211.585 18.184 211.137 19.752 210.625 21.288C210.177 22.824 209.697 24.36 209.185 25.896C208.737 27.368 208.225 28.872 207.649 30.408C207.073 31.88 206.529 33.416 206.017 35.016L193.345 69H177.216ZM189.889 56.136L194.977 43.848H225.889L230.881 56.136H189.889ZM252.417 69V1.8H267.009L302.241 49.8L299.073 49.32C298.753 47.208 298.497 45.192 298.305 43.272C298.113 41.352 297.921 39.464 297.729 37.608C297.601 35.752 297.473 33.864 297.345 31.944C297.281 30.024 297.217 27.944 297.153 25.704C297.153 23.464 297.153 21.032 297.153 18.408V1.8H312.993V69H298.209L261.441 19.464L266.337 20.136C266.657 23.208 266.913 25.832 267.105 28.008C267.361 30.12 267.553 32.008 267.681 33.672C267.873 35.336 268.001 36.84 268.065 38.184C268.129 39.528 268.161 40.872 268.161 42.216C268.225 43.496 268.257 44.936 268.257 46.536V69H252.417Z" fill="#171717"/>
</svg>
