<svg width="264" height="104" viewBox="0 0 264 104" fill="none" xmlns="http://www.w3.org/2000/svg">
<path d="M110.432 30.216C111.072 30.216 111.808 30.344 112.64 30.6C113.536 30.792 114.336 31.08 115.04 31.464C115.744 31.784 116.32 32.136 116.768 32.52C117.28 32.904 117.536 33.256 117.536 33.576C116.256 36.264 115.072 38.984 113.984 41.736C112.896 44.424 111.968 47.016 111.2 49.512C110.432 52.008 109.824 54.344 109.376 56.52C108.992 58.696 108.8 60.584 108.8 62.184C108.8 63.976 108.992 65.48 109.376 66.696C109.76 67.848 110.4 68.68 111.296 69.192C110.528 69.704 109.536 70.12 108.32 70.44C107.104 70.76 106.016 70.92 105.056 70.92C101.6 70.92 99.872 68.552 99.872 63.816C99.872 60.168 101.088 55.176 103.52 48.84C102.24 51.784 100.768 54.568 99.104 57.192C97.44 59.752 95.744 62.024 94.016 64.008C92.288 65.992 90.528 67.624 88.736 68.904C87.008 70.12 85.408 70.856 83.936 71.112C81.568 70.984 79.648 69.864 78.176 67.752C76.704 65.576 75.968 62.824 75.968 59.496C75.968 55.912 76.736 52.136 78.272 48.168C79.808 44.2 81.76 40.52 84.128 37.128C86.56 33.736 89.184 30.92 92 28.68C94.816 26.376 97.536 25.16 100.16 25.032C100.8 25.224 101.504 25.608 102.272 26.184C103.104 26.76 103.872 27.432 104.576 28.2C105.344 28.968 105.984 29.768 106.496 30.6C107.008 31.368 107.296 32.04 107.36 32.616C104.8 33 102.144 34.248 99.392 36.36C96.704 38.472 94.24 41.032 92 44.04C89.824 46.984 88.032 50.152 86.624 53.544C85.216 56.936 84.512 60.104 84.512 63.048C84.512 64.264 84.96 65.032 85.856 65.352C87.712 64.968 89.856 63.4 92.288 60.648C94.72 57.832 97.664 53.512 101.12 47.688C101.76 46.536 102.464 45.256 103.232 43.848C104.064 42.44 104.896 40.968 105.728 39.432C106.56 37.896 107.36 36.36 108.128 34.824C108.96 33.224 109.728 31.688 110.432 30.216ZM158.127 54.12C156.655 58.792 155.183 63.048 153.711 66.888C152.239 70.728 150.671 74.248 149.007 77.448C147.343 80.712 145.551 83.688 143.631 86.376C141.711 89.128 139.599 91.72 137.295 94.152C134.351 97.224 131.311 99.56 128.175 101.16C125.039 102.824 121.903 103.656 118.767 103.656C117.167 103.656 115.567 103.464 113.967 103.08C112.431 102.76 110.991 102.28 109.647 101.64C108.239 101.064 107.023 100.36 105.999 99.528C104.911 98.76 104.143 97.928 103.695 97.032C103.695 96.264 104.143 95.592 105.039 95.016C105.807 95.72 106.447 96.264 106.959 96.648C107.471 97.032 107.983 97.352 108.495 97.608C108.943 97.864 109.455 98.024 110.031 98.088C110.543 98.152 111.151 98.184 111.855 98.184C115.503 98.184 119.055 97.096 122.511 94.92C126.031 92.808 129.327 89.768 132.399 85.8C135.535 81.896 138.383 77.128 140.943 71.496C143.503 65.928 145.679 59.688 147.471 52.776C146.639 54.056 145.615 55.624 144.399 57.48C143.183 59.336 141.839 61.192 140.367 63.048C138.895 64.84 137.359 66.472 135.759 67.944C134.223 69.416 132.719 70.408 131.247 70.92C130.223 70.856 129.135 70.632 127.983 70.248C126.895 69.928 125.839 69.448 124.815 68.808C123.855 68.168 122.991 67.4 122.223 66.504C121.455 65.608 120.943 64.584 120.687 63.432C120.687 61.576 120.751 60.104 120.879 59.016C121.007 57.864 121.231 56.616 121.551 55.272C122.127 52.84 122.959 50.088 124.047 47.016C125.199 43.944 126.511 40.936 127.983 37.992C129.519 34.984 131.183 32.2 132.975 29.64C134.831 27.016 136.751 24.968 138.735 23.496C139.247 23.496 139.887 23.56 140.655 23.688C141.423 23.752 142.223 23.912 143.055 24.168C143.887 24.424 144.687 24.744 145.455 25.128C146.223 25.448 146.895 25.896 147.471 26.472C146.767 27.112 145.231 29.256 142.863 32.904C140.495 36.552 137.871 41.8 134.991 48.648C134.671 49.352 134.287 50.376 133.839 51.72C133.391 53.064 132.943 54.472 132.495 55.944C132.111 57.416 131.759 58.856 131.439 60.264C131.119 61.672 130.959 62.792 130.959 63.624C130.959 64.136 131.023 64.52 131.151 64.776C131.343 65.032 131.503 65.224 131.631 65.352C132.783 65.16 134.319 64.232 136.239 62.568C138.159 60.84 140.335 58.184 142.767 54.6C144.303 52.296 145.711 50.024 146.991 47.784C148.271 45.48 149.519 43.176 150.735 40.872C152.015 38.568 153.327 36.2 154.671 33.768C156.015 31.336 157.455 28.84 158.991 26.28C159.823 26.28 160.719 26.376 161.679 26.568C162.639 26.76 163.567 27.016 164.463 27.336C165.359 27.592 166.127 27.912 166.767 28.296C167.471 28.616 167.983 28.968 168.303 29.352C166.319 33.576 164.463 37.704 162.735 41.736C161.007 45.768 159.471 49.896 158.127 54.12ZM202.12 30.216C202.76 30.216 203.496 30.344 204.328 30.6C205.224 30.792 206.024 31.08 206.728 31.464C207.432 31.784 208.008 32.136 208.456 32.52C208.968 32.904 209.224 33.256 209.224 33.576C207.944 36.264 206.76 38.984 205.672 41.736C204.584 44.424 203.656 47.016 202.888 49.512C202.12 52.008 201.512 54.344 201.064 56.52C200.68 58.696 200.488 60.584 200.488 62.184C200.488 63.976 200.68 65.48 201.064 66.696C201.448 67.848 202.088 68.68 202.984 69.192C202.216 69.704 201.224 70.12 200.008 70.44C198.792 70.76 197.704 70.92 196.744 70.92C193.288 70.92 191.56 68.552 191.56 63.816C191.56 60.168 192.776 55.176 195.208 48.84C193.928 51.784 192.456 54.568 190.792 57.192C189.128 59.752 187.432 62.024 185.704 64.008C183.976 65.992 182.216 67.624 180.424 68.904C178.696 70.12 177.096 70.856 175.624 71.112C173.256 70.984 171.336 69.864 169.864 67.752C168.392 65.576 167.656 62.824 167.656 59.496C167.656 55.912 168.424 52.136 169.96 48.168C171.496 44.2 173.448 40.52 175.816 37.128C178.248 33.736 180.872 30.92 183.688 28.68C186.503 26.376 189.224 25.16 191.848 25.032C192.488 25.224 193.192 25.608 193.96 26.184C194.792 26.76 195.56 27.432 196.264 28.2C197.032 28.968 197.672 29.768 198.184 30.6C198.696 31.368 198.984 32.04 199.048 32.616C196.488 33 193.832 34.248 191.08 36.36C188.392 38.472 185.928 41.032 183.688 44.04C181.512 46.984 179.72 50.152 178.312 53.544C176.904 56.936 176.2 60.104 176.2 63.048C176.2 64.264 176.648 65.032 177.544 65.352C179.4 64.968 181.544 63.4 183.976 60.648C186.408 57.832 189.352 53.512 192.808 47.688C193.448 46.536 194.152 45.256 194.92 43.848C195.752 42.44 196.584 40.968 197.416 39.432C198.248 37.896 199.048 36.36 199.816 34.824C200.648 33.224 201.416 31.688 202.12 30.216ZM229.645 22.44C231.309 22.952 232.877 24.104 234.349 25.896C235.821 27.624 236.909 29.544 237.613 31.656C236.909 33.384 235.821 35.464 234.349 37.896C232.877 40.328 231.405 42.824 229.933 45.384C228.461 47.88 227.117 50.28 225.901 52.584C224.749 54.824 224.077 56.68 223.885 58.152C224.909 57.064 226.029 55.816 227.245 54.408C228.525 52.936 229.741 51.496 230.893 50.088C232.109 48.616 233.229 47.304 234.253 46.152C235.277 44.936 236.077 44.04 236.653 43.464C237.869 42.184 239.309 40.712 240.973 39.048C242.637 37.32 244.365 35.72 246.157 34.248C248.013 32.712 249.869 31.432 251.725 30.408C253.581 29.32 255.277 28.776 256.813 28.776C258.477 28.776 259.853 29.352 260.941 30.504C262.093 31.592 262.989 32.744 263.629 33.96C263.629 34.088 263.373 34.28 262.861 34.536C262.413 34.728 261.741 35.336 260.845 36.36C259.949 37.512 258.925 39.112 257.773 41.16C256.685 43.144 255.597 45.32 254.509 47.688C253.485 49.992 252.621 52.36 251.917 54.792C251.213 57.224 250.861 59.432 250.861 61.416C250.861 63.016 251.053 64.04 251.437 64.488C251.885 64.936 252.493 65.16 253.261 65.16C253.965 65.16 254.701 65 255.469 64.68C256.237 64.36 256.845 64.2 257.293 64.2C257.549 64.328 257.741 64.616 257.869 65.064C258.061 65.448 258.157 65.8 258.157 66.12C257.645 66.568 257.037 67.016 256.333 67.464C255.629 67.912 254.893 68.328 254.125 68.712C253.357 69.096 252.589 69.416 251.821 69.672C251.117 69.928 250.477 70.056 249.901 70.056C248.045 70.056 246.509 69.768 245.293 69.192C244.141 68.68 243.213 67.976 242.509 67.08C241.869 66.184 241.421 65.128 241.165 63.912C240.909 62.632 240.781 61.288 240.781 59.88C240.781 59.112 240.845 58.248 240.973 57.288C241.101 56.328 241.357 55.208 241.741 53.928C242.125 52.584 242.669 51.016 243.373 49.224C244.077 47.368 244.973 45.16 246.061 42.6C245.933 42.6 245.069 43.048 243.469 43.944C241.869 44.84 240.141 46.216 238.285 48.072C235.277 50.952 232.557 53.8 230.125 56.616C227.757 59.432 225.325 62.568 222.829 66.024C221.421 68.008 220.173 69.672 219.085 71.016C218.061 72.424 217.165 73.352 216.397 73.8C215.053 73.032 214.061 71.944 213.421 70.536C212.781 69.192 212.301 67.784 211.981 66.312C211.981 65.096 212.141 63.56 212.461 61.704C212.845 59.848 213.325 57.8 213.901 55.56C214.541 53.256 215.309 50.856 216.205 48.36C217.101 45.864 218.093 43.368 219.181 40.872C221.613 35.24 223.821 30.824 225.805 27.624C227.853 24.424 229.133 22.696 229.645 22.44Z" fill="black"/>
<g clip-path="url(#clip0_33_5)">
<path d="M71.4909 34.725H40.2182L44.2909 27.375C51.5636 14.3251 65.0909 6.22506 79.7818 6.22506V0.825073H44C32.3636 0.825073 21.6 7.72506 16.5091 18.675L8.94543 34.875H40.2182L36.1454 42.225C28.8727 55.275 15.3454 63.375 0.654541 63.375V68.775H36.4363C48.0727 68.775 58.8363 61.875 63.9272 50.925L71.4909 34.725Z" fill="black"/>
</g>
<defs>
<clipPath id="clip0_33_5">
<rect width="80" height="69" fill="white"/>
</clipPath>
</defs>
</svg>
