<svg width="70" height="85" viewBox="0 0 70 85" fill="none" xmlns="http://www.w3.org/2000/svg">
<rect width="70" height="84.8219" rx="5" fill="#313BAC"/>
<path d="M47.8571 26.8571H53V32H47.8571V26.8571ZM42.7143 26.8571H47.8571V32H42.7143V26.8571ZM42.7143 21.7143H47.8571V26.8571H42.7143V21.7143ZM47.8571 21.7143H53V26.8571H47.8571V21.7143ZM42.7143 16.5714H47.8571V21.7143H42.7143V16.5714ZM37.5714 16.5714H42.7143V21.7143H37.5714V16.5714ZM37.5714 21.7143H42.7143V26.8571H37.5714V21.7143ZM32.4286 21.7143H37.5714V26.8571H32.4286V21.7143ZM27.2857 21.7143H32.4286V26.8571H27.2857V21.7143ZM27.2857 16.5714H32.4286V21.7143H27.2857V16.5714ZM22.1429 16.5714H27.2857V21.7143H22.1429V16.5714ZM32.4286 16.5714H37.5714V21.7143H32.4286V16.5714ZM22.1429 21.7143H27.2857V26.8571H22.1429V21.7143ZM17 21.7143H22.1429V26.8571H17V21.7143ZM17 26.8571H22.1429V32H17V26.8571ZM22.1429 26.8571H27.2857V32H22.1429V26.8571ZM22.1429 32H27.2857V37.1429H22.1429V32ZM22.1429 37.1429H27.2857V42.2857H22.1429V37.1429ZM17 37.1429H22.1429V42.2857H17V37.1429ZM17 32H22.1429V37.1429H17V32ZM22.1429 42.2857H27.2857V47.4286H22.1429V42.2857ZM27.2857 42.2857H32.4286V47.4286H27.2857V42.2857ZM27.2857 37.1429H32.4286V42.2857H27.2857V37.1429ZM32.4286 37.1429H37.5714V42.2857H32.4286V37.1429ZM37.5714 37.1429H42.7143V42.2857H37.5714V37.1429ZM42.7143 37.1429H47.8571V42.2857H42.7143V37.1429ZM42.7143 42.2857H47.8571V47.4286H42.7143V42.2857ZM37.5714 42.2857H42.7143V47.4286H37.5714V42.2857ZM32.4286 42.2857H37.5714V47.4286H32.4286V42.2857ZM47.8571 42.2857H53V47.4286H47.8571V42.2857ZM47.8571 47.4286H53V52.5714H47.8571V47.4286ZM42.7143 47.4286H47.8571V52.5714H42.7143V47.4286ZM37.5714 57.7143H42.7143V62.8571H37.5714V57.7143ZM42.7143 57.7143H47.8571V62.8571H42.7143V57.7143ZM42.7143 52.5714H47.8571V57.7143H42.7143V52.5714ZM47.8571 52.5714H53V57.7143H47.8571V52.5714ZM47.8571 57.7143H53V62.8571H47.8571V57.7143ZM42.7143 62.8571H47.8571V68H42.7143V62.8571ZM37.5714 62.8571H42.7143V68H37.5714V62.8571ZM32.4286 62.8571H37.5714V68H32.4286V62.8571ZM27.2857 62.8571H32.4286V68H27.2857V62.8571ZM22.1429 62.8571H27.2857V68H22.1429V62.8571ZM22.1429 57.7143H27.2857V62.8571H22.1429V57.7143ZM27.2857 57.7143H32.4286V62.8571H27.2857V57.7143ZM32.4286 57.7143H37.5714V62.8571H32.4286V57.7143ZM17 57.7143H22.1429V62.8571H17V57.7143ZM17 52.5714H22.1429V57.7143H17V52.5714ZM22.1429 52.5714H27.2857V57.7143H22.1429V52.5714Z" fill="white"/>
</svg>
